<?xml version="1.0" encoding="utf-8"?>
<!-- Generator: Adobe Illustrator 25.4.8, SVG Export Plug-In . SVG Version: 6.00 Build 0)  -->
<svg version="1.1" id="Layer_1" xmlns="http://www.w3.org/2000/svg" xmlns:xlink="http://www.w3.org/1999/xlink" x="0px" y="0px"
	 viewBox="-223 25 512 512" style="enable-background:new -223 25 512 512;" xml:space="preserve">
<style type="text/css">
	.st0{fill:#FFFFFF;}
	.st1{fill:#BDC3C7;}
	.st2{fill:#414F6B;}
	.st3{fill:#ECF0F1;}
</style>
<g>
	<path class="st0" d="M289,281c0,19.91-2.27,39.29-6.58,57.9c-94.29,50.64-116.81,47.64-238.28,47.64
		c-78.52,0-159.92,115.11-206.88,59.46C-200.34,401.44-223,343.86-223,281c0-141.39,114.61-256,256-256S289,139.61,289,281z"/>
	<path class="st1" d="M33,537c121.47,0,223.18-84.6,249.42-198.1L234.35,270L189,299l-84-118L-37,363l-50-20l-75.73,102.99
		C-115.77,501.64-45.52,537,33,537z"/>
	<polygon class="st2" points="105,181 111.1,343 189,299 	"/>
	<polygon class="st3" points="-133.38,446.57 -87,458.57 -41.89,514.07 40.61,442.07 7.61,365.57 105,181 -37,363 -87,343 -137,411 
			"/>
	<polygon class="st2" points="-87,343 -87,382 -65.89,373.07 -76.44,418.07 -21.4,343 	"/>
	<polygon class="st2" points="87.11,439.07 126.1,380.54 195.1,359 228.1,426.79 189,399.04 111.1,481.07 	"/>
	<polygon class="st2" points="70.61,287.58 33,364.07 59.85,407.57 	"/>
	<polygon class="st3" points="208.6,313.08 228.1,371.57 252.1,347.57 	"/>
	<polygon class="st1" points="-41.89,443.57 -16,407.57 -28.94,452.57 	"/>
</g>
</svg>
